<svg xmlns="http://www.w3.org/2000/svg" viewBox="0 0 1277.32 449.57"><defs><style>.cls-1{fill:#7ad00b;}.cls-2{fill:none;stroke:#7ad00b;stroke-linecap:round;stroke-miterlimit:10;stroke-width:6px;}</style></defs><g id="Camada_2" data-name="Camada 2"><g id="Camada_1-2" data-name="Camada 1"><g id="letras"><path d="M724.45,23.87c.54-3.21-62,25-62,25l10.87,120.3,5.17,10.16-1.07,1.78-7.3-8.38s-17.68-40.34-23.05-54c-6.15-15.62-25.44-50.26-25.61-50.26l-43-2.49,4.28,94.45-9.8,1.79L539.64,51,478,56.13l6.95,17.28s-6.95,89.83-8.2,88.76c-7.37-6.32-34.89-4.58-40.46-5.53s23.8-8.11,29.23-52.22C470.4,64.65,325,67.5,324.18,67.18c-2.77-1.16,16.21,29.76,11.13,25.13-29.42-26.86-163.2-44.44-166.66-50.47L185,85l19.78,7.31,14.44,77.88s-11.34,6.22-12,4.81c-1.6-3.74-1.06-25.31-14.61-76.64-.77-2.93-6.65-6.5-11.15-8.86a18.56,18.56,0,0,1-8-8.19L167.17,68.6l-23.61-3.85a4.74,4.74,0,0,0-.75-.06,4.68,4.68,0,0,0-4.58,5.63C140.84,66.11,159,148,161.28,181.77c1.33,19.81,8.24,63.26-12.11,63.45-19.71.18-34.87-50.43-38.32-85.73-2.36-24.18,1-96.88,6.06-97.48L21.38,28.5,0,73.24,60.41,93.73c-1.38.23-4.83,127.7,20,160.58,28.46,37.72,35.71,46.63,61.25,48.17,37.53,2.27,89.82-52,67.25-112.69l13.36,2.14,13,81.44,44.74-15L262.33,203s103.83,60.33,103,60.41C211.84,280,51.8,360.23,52.27,366.76c1,14.23,11.65,46.93,13.49,54.89.29,1.25,4,2,5,1.18,58.06-46.45,188-99.47,251.48-121.48,16.64-5.76,78.25-13.9,104.62-16.21,28.93-2.54,120.89-6.89,115.66-10.7-24.2-17.6-89.39-16.44-119-12.47-7.48,1-1.61,6.65-51.5,21.92-1,.3-.94-3.69,0-4.1,19.67-8.47,64.87-31,99.62-70.4,1.4-1.58-1.07,18.54-1.07,18.54s27.4,11.83,36.29,9.24A3.31,3.31,0,0,0,509,234.3c.35-11.27.69-34,.69-34l31.9-6.24s19.38,79.16,21.57,83.05c4.81,8.55,79,44.55,77.52,42.23-9.58-15.56-35.64-63.8-35.64-63.8l37.42,16.93s-17-105.41-15.5-109.6c.71-2,65.94,111.74,65.94,111.74S708,273.31,713.05,272c4.73-1.28,18.35-7.49,18.35-7.49S697.44,185.94,724.45,23.87ZM255.38,160.38l-4.1-46.69-8.19-12.83s51.68,21.39,52.39,32.44C296.26,145.37,255.38,160.38,255.38,160.38Zm27.27,18C362.49,158.42,349,111,349,111l5.34.53,6.95,51.33-21.92,5.88-1.6,4.46L349.66,191l15.51-4.81L368,221.51Zm108.71-67.06s33.32.36,35.41,12.59c1.54,9-31.72,29.94-31.72,29.94ZM409.19,224.9l-8.56-42.59s47-5.48,49.55,6.77C452.49,200.31,409.19,224.9,409.19,224.9Zm102.29-52.75L517,99.08l20,69.62Zm66.77,15.56,8-2.61,6.42,41.23Z"/><path d="M1236.59,89.33c.1-3-32.83-87.15-264.71-29l2.37-32.79-63.2,15.21S885.86,96,873.5,144c0,0-20.43-59.88-23.76-83.65l-65.23,23s-3.92,118.7-19.6,173.59l59.17,16.75,7.84-137.58S869,237.37,874.69,241.3c0,0,26.38-50.62,41-101.23,0,0,5.7,144.35,9.27,154l69.49,24.23c-.48-1-36.74-75.4-24.94-244.51l5.94,37.55,20.44-6.06-1.19,66.29-17.58,7.13,3.32,45.63,14.74-2.38,2.85,58L1063.6,307l-11.88-99.8C1051.48,199.59,1234.69,145.41,1236.59,89.33Zm-186.3,68,.48-55.61L1046.25,91l1.85-1.52,3.62,2.71,5.47.23s94.69-3.44,89.1,14.26C1138.79,130.48,1050.29,157.3,1050.29,157.3Z"/></g><g id="traços"><path class="cls-1" d="M1277.32,109.52c-1.08,1.66-3,4-4.29,5.55a182,182,0,0,1-27.12,25.39c-20.47,16-43.55,28.76-67.12,39.27-3.07,1.44-7.75,3.47-10.9,4.66-1.74.66-12.09,4.88-13.75,5.46-2,.72-6.36,2.21-8.37,2.92-7.23,2.79-26.09,8.38-33.69,10.62l21.59-9.23,18.47-8.87c4.9-2.58,13.19-7,18-9.66l15-8.95,9.67-6.4c19-12.92,36.82-27.3,51.77-44.63a116.12,116.12,0,0,0,12-16.22l.29-.5.16-.32,18.25,10.91Z"/><path class="cls-2" d="M988,36.11S1155.32,9,1213.3,40.38"/><path class="cls-1" d="M984.5,22.73c-3,.52-4.69.09-6-.62a4.1,4.1,0,0,1-1.4-1.41,12.84,12.84,0,0,1-1.3-11l2.74,1.1c-13.86,2.44-27.73,5.46-41.41,8.89A352.15,352.15,0,0,0,896.67,32.3c6.43-3,13-5.67,19.64-8.19A554.65,554.65,0,0,1,977.52,5.55l2.75,1.1a13.14,13.14,0,0,1,8.53,3.58,6.53,6.53,0,0,1,2.13,3.28c.66,3-2.25,8.8-6.43,9.22Z"/><path class="cls-1" d="M863.59,48.43a767.68,767.68,0,0,0-81.19,19c-8.93,2.64-17.77,5.55-26.58,8.7,8.17-4.53,16.48-8.88,24.92-13a779,779,0,0,1,78.32-32.45,9.2,9.2,0,1,1,4.53,17.76Z"/><path class="cls-1" d="M736.78,29.1l-4.84-8.46,2.17,5.18-12-13.69L728.51,14c-6.17,1.18-12.41,2.47-18.6,3.8-12.33,2.68-24.71,5.51-36.81,9-5.09,1.57-10.25,3.07-14.93,5.53l-.83.49a6.61,6.61,0,0,1-.6.44,3,3,0,1,1-4.29-4.19,16,16,0,0,1,2.35-2c4.88-3.28,10.36-5.47,15.72-7.7,18-7.12,36.33-12.87,54.86-18.43l3.3-1,3.06,2.82,13.35,12.32,2.17,5.18L742.78,29a3.44,3.44,0,0,1-6,.12Z"/><path class="cls-1" d="M628.76,56.37c-11.17-5.32-23.45-9.27-35.91-9.67-7.54-.21-15.26,1.29-21.49,5.86,5.77-5.2,13.73-7.59,21.43-8.11,13.11-.84,26.14,2,38.44,6.45a3,3,0,1,1-2.47,5.47Z"/><path class="cls-1" d="M557.09,51.89,542.92,37l6,3-78-1.85.17,0,.12,0a4.52,4.52,0,0,0-1.58,2.39c-1.3,3.64-1.47,7.66-1.61,11.51-.14-1.31-.3-2.62-.37-3.94-.18-3-.56-11.19,3.16-12.17l77.44-9.33,4.46-.54c.87,2.11,8.36,20,9.42,22.56a3.06,3.06,0,0,1-5,3.28Z"/><path class="cls-1" d="M432.79,65.93a3.93,3.93,0,0,0,1.08,1.39c-.06,0,0,0-.13-.12a7.58,7.58,0,0,0-1-.55c-5.21-2.27-11.13-3.19-16.75-4.1-14.61-2.18-29.68-2.88-44.53-3.42L364,59c-14.92-.37-30.21-.18-45.12,0,19.8-2.24,40.14-4.37,60.07-5.47A360.29,360.29,0,0,1,417,53a92.68,92.68,0,0,1,17.85,2.34,20.49,20.49,0,0,1,6.07,2.59c4,2.51,4.21,8.33-.15,10.61a5.91,5.91,0,0,1-7.94-2.6Z"/><path class="cls-1" d="M300,65.36C270.78,54.74,233.31,41.93,203.7,32q-16.11-5.39-32.26-10.61c36.45,9.18,79,19.05,115.72,27.27l16.62,3.6c9.31,2.5,5.51,15.93-3.76,13.12Z"/><path class="cls-1" d="M126.89,50.61,19.07,11.22,129.74,41.68c6.15,2,3.31,10.91-2.85,8.93Z"/><path class="cls-1" d="M44.91,109.59c-1.8,58.8,6.41,162,62.62,194.27a7.57,7.57,0,1,1-7.86,12.93c-59-39.24-61-143.54-54.76-207.2Z"/><path class="cls-1" d="M216.71,199.12c6.46,19.27,11.22,39.32,10.52,59.88a58.19,58.19,0,0,1-4.72,21.44,6.09,6.09,0,1,1-10.65-5.81,47.91,47.91,0,0,0,6.33-16.73,109.48,109.48,0,0,0,1.95-19.23,202.22,202.22,0,0,0-3.43-39.55Z"/><path class="cls-1" d="M292.43,227c-.1,0-.06.23-.05.38a21.42,21.42,0,0,0,3.53,8.35,38.5,38.5,0,0,0,20.19,15,34.39,34.39,0,0,0,5.21,1.16,3.06,3.06,0,0,1-.88,6.05c-10.77-4.36-21.19-9.22-30.74-16a78.83,78.83,0,0,1-9.93-7.91c-4.35-8.56,7.69-15.26,12.67-7Z"/><path class="cls-1" d="M463.36,231.91a192.91,192.91,0,0,1-17.46,19.56,56.22,56.22,0,0,1-6.7,5.51,3,3,0,0,1-3.95-4.52,55.43,55.43,0,0,1,6.37-5.89,193.28,193.28,0,0,1,21.74-14.66Z"/><path class="cls-1" d="M76.51,449.57l8-12.58a3.7,3.7,0,1,1,5,5.2l-12.94,7.38Z"/><path class="cls-1" d="M116.57,413.92l80.65-42.29-76.17,49.91c-5.24,3.17-9.81-4.57-4.48-7.62Z"/><path class="cls-1" d="M218.61,359.28,327.6,307a12.2,12.2,0,0,1,10.55,22,13.3,13.3,0,0,1-2.31.83L218.61,359.28Z"/><path class="cls-1" d="M569.34,293.22c18.64,10,37.47,19.79,56.78,28.38a186.43,186.43,0,0,0,19.27,7.53,5.32,5.32,0,1,1-3.8,9.92,195.74,195.74,0,0,1-19.13-10.37c-18.25-11-35.8-23.11-53.12-35.46Z"/><path class="cls-1" d="M637.2,275.79l23.87,15-23.36-87.72a3,3,0,1,1,5.84-1.35l17.52,89.07-26.51-9.66a3,3,0,1,1,2.64-5.39Z"/><path class="cls-1" d="M777.2,272.7c12,4.94,24.57,8.3,37.2,11.23l2.7.61a2.25,2.25,0,0,0,1.5-.38,6.46,6.46,0,0,0,1.84-2,3,3,0,1,1-1.28,5.86,6.71,6.71,0,0,0-.86-2.55,2.23,2.23,0,0,0-1.21-1l-2.7-.58q-8.13-1.74-16.33-3a186.71,186.71,0,0,0-22.15-2.37,3,3,0,1,1,1.29-5.86Z"/><path class="cls-1" d="M901.54,233.33a202.62,202.62,0,0,0,2.93,34.39c1.92,10.64,4.89,21.69,10.25,30.79a8.22,8.22,0,1,1-15,6.52,88.06,88.06,0,0,1-3.39-18.75c-1.15-17.9,1.15-35.62,5.16-52.95Z"/><path class="cls-1" d="M1084.51,216.7c.71,26,2.72,52.66,9.39,77.8,2.12,7.38,4.88,15.55,9.29,21.4A9.62,9.62,0,1,1,1086.93,326c-4.68-9.48-6.12-19-7.14-29-2.15-27,.63-53.76,4.72-80.34Z"/></g></g></g></svg>