<svg xmlns="http://www.w3.org/2000/svg" viewBox="0 0 1278.02 449.57"><defs><style>.cls-1{fill:#fff;stroke:#000;}.cls-1,.cls-3{stroke-miterlimit:10;}.cls-2{fill:#7ad00b;}.cls-3{fill:none;stroke:#7ad00b;stroke-linecap:round;stroke-width:6px;}</style></defs><g id="Camada_2" data-name="Camada 2"><g id="Camada_1-2" data-name="Camada 1"><g id="letras"><path class="cls-1" d="M725.14,23.87c.54-3.21-62,25-62,25L674,169.12l5.17,10.16-1.07,1.78-7.3-8.38s-17.68-40.34-23-54c-6.15-15.62-25.44-50.26-25.61-50.26l-43-2.49,4.28,94.45-9.8,1.79L540.33,51l-61.66,5.17,6.95,17.28s-6.95,89.83-8.2,88.76c-7.37-6.32-34.89-4.58-40.46-5.53s23.8-8.11,29.23-52.22c4.9-39.77-140.55-36.92-141.32-37.24C322.1,66,341.08,96.94,336,92.31,306.58,65.45,172.8,47.87,169.34,41.84L185.68,85l19.78,7.31,14.44,77.88s-11.34,6.22-12,4.81c-1.6-3.74-1.06-25.31-14.61-76.64-.77-2.93-6.65-6.5-11.15-8.86a18.56,18.56,0,0,1-8-8.19L167.86,68.6l-23.61-3.85a4.74,4.74,0,0,0-.75-.06,4.68,4.68,0,0,0-4.58,5.63C141.53,66.11,159.71,148,162,181.77c1.33,19.81,8.24,63.26-12.11,63.45-19.71.18-34.87-50.43-38.32-85.73-2.36-24.18,1-96.88,6.06-97.48L22.07,28.5.69,73.24,61.1,93.73c-1.38.23-4.83,127.7,20,160.58,28.46,37.72,35.71,46.63,61.25,48.17,37.53,2.27,89.82-52,67.25-112.69l13.36,2.14,13,81.44,44.74-15L263,203s103.83,60.33,103,60.41C212.53,280,52.49,360.23,53,366.76c1,14.23,11.65,46.93,13.49,54.89.29,1.25,4,2,5,1.18,58.06-46.45,188-99.47,251.48-121.48,16.64-5.76,78.25-13.9,104.62-16.21,28.93-2.54,120.89-6.89,115.66-10.7C519,256.84,453.79,258,424.13,262c-7.48,1-1.61,6.65-51.5,21.92-1,.3-.94-3.69,0-4.1,19.67-8.47,64.87-31,99.62-70.4,1.4-1.58-1.07,18.54-1.07,18.54s27.4,11.83,36.29,9.24a3.31,3.31,0,0,0,2.23-2.87c.35-11.27.69-34,.69-34l31.9-6.24s19.38,79.16,21.57,83.05c4.81,8.55,78.95,44.55,77.52,42.23-9.58-15.56-35.64-63.8-35.64-63.8l37.42,16.93s-17-105.41-15.5-109.6c.71-2,65.94,111.74,65.94,111.74s15.09-1.31,20.14-2.67c4.73-1.28,18.35-7.49,18.35-7.49S698.13,185.94,725.14,23.87ZM256.07,160.38,252,113.69l-8.19-12.83s51.68,21.39,52.39,32.44C297,145.37,256.07,160.38,256.07,160.38Zm27.27,18c79.84-20,66.3-67.36,66.3-67.36l5.34.53,6.95,51.33L340,168.76l-1.6,4.46L350.35,191l15.51-4.81,2.85,35.28Zm108.71-67.06s33.32.36,35.41,12.59c1.54,9-31.72,29.94-31.72,29.94ZM409.88,224.9l-8.56-42.59s47-5.48,49.55,6.77C453.18,200.31,409.88,224.9,409.88,224.9Zm102.29-52.75,5.47-73.07,20,69.62Zm66.77,15.56,8-2.61,6.42,41.23Z"/><path class="cls-1" d="M1237.28,89.33c.1-3-32.83-87.15-264.71-29l2.37-32.79-63.2,15.21S886.55,96,874.19,144c0,0-20.43-59.88-23.76-83.65l-65.23,23S781.28,202.09,765.6,257l59.17,16.75,7.84-137.58s37.07,101.22,42.77,105.15c0,0,26.38-50.62,41-101.23,0,0,5.7,144.35,9.27,154l69.49,24.23c-.48-1-36.74-75.4-24.94-244.51l5.94,37.55,20.44-6.06-1.19,66.29-17.58,7.13,3.32,45.63,14.74-2.38,2.85,58L1064.29,307l-11.88-99.8C1052.17,199.59,1235.38,145.41,1237.28,89.33Zm-186.3,68,.48-55.61L1046.94,91l1.85-1.52,3.62,2.71,5.47.23s94.69-3.44,89.1,14.26C1139.48,130.48,1051,157.3,1051,157.3Z"/></g><g id="traços"><path class="cls-2" d="M1278,109.52c-1.08,1.66-3,4-4.29,5.55a181.59,181.59,0,0,1-27.13,25.39c-20.47,16-43.55,28.76-67.12,39.27-3.07,1.44-7.74,3.47-10.9,4.66-1.74.66-12.08,4.88-13.74,5.46-2,.72-6.36,2.21-8.38,2.92-7.23,2.79-26.09,8.38-33.69,10.62l21.59-9.23,18.48-8.87c4.89-2.58,13.18-7,18-9.66l15-8.95,9.68-6.4c19-12.92,36.82-27.3,51.77-44.63a116,116,0,0,0,12-16.22l.3-.5.15-.32L1278,109.52Z"/><path class="cls-3" d="M988.73,36.11S1156,9,1214,40.38"/><path class="cls-2" d="M985.2,22.73c-3,.52-4.7.09-6-.62a4.1,4.1,0,0,1-1.4-1.41,12.87,12.87,0,0,1-1.3-11l2.74,1.1c-13.86,2.44-27.73,5.46-41.4,8.89A352.31,352.31,0,0,0,897.36,32.3c6.44-3,13-5.67,19.64-8.19A554.82,554.82,0,0,1,978.22,5.55L981,6.65a13.14,13.14,0,0,1,8.54,3.58,6.6,6.6,0,0,1,2.13,3.28c.65,3-2.26,8.8-6.43,9.22Z"/><path class="cls-2" d="M864.28,48.43a766.93,766.93,0,0,0-81.18,19q-13.4,4-26.59,8.7c8.17-4.53,16.48-8.88,24.93-13a778.82,778.82,0,0,1,78.31-32.45,9.2,9.2,0,1,1,4.53,17.76Z"/><path class="cls-2" d="M737.47,29.1l-4.83-8.46,2.16,5.18L722.85,12.13,729.21,14c-6.17,1.18-12.41,2.47-18.6,3.8-12.34,2.68-24.72,5.51-36.81,9-5.1,1.57-10.26,3.07-14.94,5.53l-.82.49c-.2.16-.4.3-.61.44a3,3,0,1,1-4.29-4.19,16.57,16.57,0,0,1,2.35-2c4.89-3.28,10.37-5.47,15.72-7.7,18-7.12,36.33-12.87,54.87-18.43l3.3-1,3,2.82,13.36,12.32L748,20.32,743.47,29a3.44,3.44,0,0,1-6,.12Z"/><path class="cls-2" d="M629.46,56.37C618.29,51.05,606,47.1,593.55,46.7c-7.54-.21-15.27,1.29-21.49,5.86,5.76-5.2,13.73-7.59,21.42-8.11,13.12-.84,26.14,2,38.45,6.45a3,3,0,1,1-2.47,5.47Z"/><path class="cls-2" d="M557.78,51.89,543.61,37l6,3-78-1.85.17,0,.11,0a4.52,4.52,0,0,0-1.58,2.39c-1.29,3.64-1.46,7.66-1.61,11.51-.14-1.31-.29-2.62-.37-3.94-.17-3-.55-11.19,3.17-12.17l77.43-9.33,4.47-.54c.86,2.11,8.35,20,9.42,22.56a3.06,3.06,0,0,1-5,3.28Z"/><path class="cls-2" d="M433.48,65.93a3.93,3.93,0,0,0,1.08,1.39c-.05,0,0,0-.13-.12a7,7,0,0,0-1-.55c-5.21-2.27-11.13-3.19-16.74-4.1-14.62-2.18-29.68-2.88-44.54-3.42l-7.5-.16c-14.92-.37-30.21-.18-45.12,0,19.8-2.24,40.14-4.37,60.07-5.47A360.29,360.29,0,0,1,417.65,53a92.79,92.79,0,0,1,17.86,2.34,20.44,20.44,0,0,1,6.06,2.59c4,2.51,4.22,8.33-.14,10.61a5.92,5.92,0,0,1-7.95-2.6Z"/><path class="cls-2" d="M300.71,65.36C271.47,54.74,234,41.93,204.39,32q-16.11-5.39-32.25-10.61c36.45,9.18,79,19.05,115.72,27.27l16.61,3.6c9.31,2.5,5.51,15.93-3.76,13.12Z"/><path class="cls-2" d="M127.58,50.61,19.76,11.22,130.44,41.68c6.14,2,3.31,10.91-2.86,8.93Z"/><path class="cls-2" d="M45.6,109.59c-1.79,58.8,6.42,162,62.63,194.27a7.57,7.57,0,1,1-7.87,12.93c-59-39.24-61-143.54-54.76-207.2Z"/><path class="cls-2" d="M217.4,199.12c6.46,19.27,11.23,39.32,10.52,59.88a58.18,58.18,0,0,1-4.71,21.44,6.09,6.09,0,1,1-10.66-5.81,47.92,47.92,0,0,0,6.34-16.73,109.48,109.48,0,0,0,1.94-19.23,202.22,202.22,0,0,0-3.43-39.55Z"/><path class="cls-2" d="M293.13,227c-.11,0-.06.23-.06.38a21.42,21.42,0,0,0,3.53,8.35,38.49,38.49,0,0,0,20.2,15,34.12,34.12,0,0,0,5.21,1.16,3.06,3.06,0,0,1-.89,6.05c-10.77-4.36-21.18-9.22-30.74-16a78.83,78.83,0,0,1-9.93-7.91c-4.35-8.56,7.7-15.26,12.68-7Z"/><path class="cls-2" d="M464.06,231.91a194.22,194.22,0,0,1-17.47,19.56,55.44,55.44,0,0,1-6.7,5.51,3,3,0,0,1-3.94-4.52,56.18,56.18,0,0,1,6.36-5.89,192.5,192.5,0,0,1,21.75-14.66Z"/><path class="cls-2" d="M77.21,449.57l8-12.58a3.7,3.7,0,1,1,5,5.2l-12.93,7.38Z"/><path class="cls-2" d="M117.26,413.92l80.66-42.29-76.18,49.91c-5.24,3.17-9.81-4.57-4.48-7.62Z"/><path class="cls-2" d="M219.31,359.28l109-52.29a12.2,12.2,0,0,1,10.55,22,13.2,13.2,0,0,1-2.3.83L219.31,359.28Z"/><path class="cls-2" d="M570,293.22c18.64,10,37.46,19.79,56.78,28.38a186.28,186.28,0,0,0,19.26,7.53,5.32,5.32,0,1,1-3.79,9.92,194.77,194.77,0,0,1-19.14-10.37c-18.25-11-35.8-23.11-53.11-35.46Z"/><path class="cls-2" d="M637.89,275.79l23.87,15L638.4,203.12a3,3,0,1,1,5.85-1.35l17.51,89.07-26.51-9.66a3,3,0,1,1,2.64-5.39Z"/><path class="cls-2" d="M777.89,272.7c12,4.94,24.57,8.3,37.2,11.23l2.7.61a2.22,2.22,0,0,0,1.5-.38,6.46,6.46,0,0,0,1.85-2,3,3,0,0,1-1.29,5.86,6.38,6.38,0,0,0-.86-2.55,2.21,2.21,0,0,0-1.2-1l-2.71-.58q-8.12-1.74-16.33-3a186.49,186.49,0,0,0-22.15-2.37,3,3,0,1,1,1.29-5.86Z"/><path class="cls-2" d="M902.24,233.33a202.61,202.61,0,0,0,2.92,34.39c1.93,10.64,4.89,21.69,10.25,30.79A8.22,8.22,0,1,1,900.47,305a88.09,88.09,0,0,1-3.4-18.75c-1.14-17.9,1.15-35.62,5.17-52.95Z"/><path class="cls-2" d="M1085.21,216.7c.71,26,2.72,52.66,9.39,77.8,2.11,7.38,4.87,15.55,9.28,21.4A9.62,9.62,0,1,1,1087.62,326c-4.67-9.48-6.12-19-7.14-29-2.14-27,.63-53.76,4.73-80.34Z"/></g></g></g></svg>