<svg xmlns="http://www.w3.org/2000/svg" viewBox="0 0 885.43 427.12"><defs><style>.cls-1{fill:#7ad00b;}.cls-2{fill:#fff;}.cls-3{fill:none;stroke:#fff;stroke-linecap:round;stroke-miterlimit:10;stroke-width:6px;}</style></defs><g id="Camada_2" data-name="Camada 2"><g id="Camada_1-2" data-name="Camada 1"><g id="Camada_2-2" data-name="Camada 2"><g id="Camada_1-2-2" data-name="Camada 1-2"><g id="letras"><path class="cls-1" d="M227.79,249.13c-.85-5.17,6.48-32,5.36-100.36-.05-3.9-6.31-10.18-11.21-14.52a23.89,23.89,0,0,1-7.48-12.71l-4-17.84L182.17,91.61a5.85,5.85,0,0,0-.92-.31A6,6,0,0,0,174,95.72a5.43,5.43,0,0,0-.17,1.21c4.56-4.46,2,103.56-5.54,146.5-4.45,25.19-9.21,81.66-34.72,75.63-24.7-5.86-28.06-73.83-21.49-119,4.51-31,31.13-120.86,37.65-120L40.54,8.59,0,58l69.24,44.26c-1.8-.14-45.43,158.23-24.51,207,24,55.95,30.28,69.33,61.75,79.14C152.72,402.77,234.86,351,225.34,268.15Z"/><path class="cls-1" d="M854.81,104.71c-.18-3.86-51-108.6-342.87-10.52l-.27-42.35L432,77.76s-27,70.92-38,133.81c0,0-32.28-74.83-39-105l-81.45,36.12S280.58,295.5,266,367.58l77.68,15.53-3.82-177.47s57.84,126.3,65.54,130.77c0,0,28.77-67.67,42.43-134.14,0,0,21.9,184.8,27.46,196.83L567,423.2c-.71-1.23-54.79-93.12-56.71-311.48l11.42,47.62,25.64-9.85,5.16,85.25-21.86,10.94,8.87,58.26,18.69-4.55,9.52,74.2,86.94,28.12-25.34-127C628.22,265,858,176.92,854.81,104.71ZM622.42,210.85l-5-71.47-6.89-13.31,2.22-2.14,4.92,3.12,7.05-.26s121.26-14,115.87,9.32c-7.23,31.32-118.18,74.7-118.18,74.7Z"/></g><g id="traços"><path class="cls-2" d="M885.43,132.83a85.36,85.36,0,0,1-4.8,7.33,227.71,227.71,0,0,1-31.3,34.29c-23.94,21.94-51.45,40.1-79.79,55.51-3.68,2.09-9.31,5.08-13.12,6.87-2.1,1-14.59,7.27-16.6,8.15-2.42,1.09-7.7,3.38-10.14,4.46-8.73,4.18-31.69,13-40.94,16.53l26-13.61,22.14-12.86c5.86-3.7,15.75-10,21.49-13.8l17.81-12.62,11.42-8.93c22.41-18,43.2-37.62,60.13-60.67a145.58,145.58,0,0,0,13.37-21.39l.31-.65.17-.41,23.8,11.8Z"/><path class="cls-3" d="M517.76,69.7S723.58,19.53,798.89,53"/><path class="cls-2" d="M512.09,53.37c-3.69.94-5.84.57-7.54-.18a5.25,5.25,0,0,1-1.88-1.62A16,16,0,0,1,500,38l3.52,1.1c-17,4.4-34,9.52-50.72,15.13A441.84,441.84,0,0,0,403.59,73.9c7.72-4.37,15.65-8.34,23.67-12.13a692,692,0,0,1,74.45-29.12l3.53,1.1a16.48,16.48,0,0,1,11,3.62,8.17,8.17,0,0,1,3,3.88c1.11,3.68-1.94,11.19-7.11,12.12Z"/><path class="cls-2" d="M183.5,80.06,64.45,0,189.64,70.08C196.5,74.34,190.39,84.3,183.5,80.06Z"/><path class="cls-2" d="M66.38,127.1C46.6,197.91,25.68,325.6,84.24,381.58a9.46,9.46,0,0,1-13,13.78,4.78,4.78,0,0,1-.45-.45C11,329.65,39.76,202.48,66.38,127.1Z"/><path class="cls-2" d="M248.06,287.15c2.08,25.31,1.85,51.07-5.15,75.81a72.84,72.84,0,0,1-12.14,24.6,7.61,7.61,0,0,1-12.1-9.24,7.82,7.82,0,0,1,.91-1,59.74,59.74,0,0,0,12.69-18.4,137,137,0,0,0,8.12-22.76,252.22,252.22,0,0,0,7.67-49Z"/><path class="cls-2" d="M278.28,385.13c15.44,5,31.43,7.93,47.45,10.35l3.43.49a2.78,2.78,0,0,0,1.83-.62,8.16,8.16,0,0,0,2.1-2.67,3.75,3.75,0,0,1-.84,7.45l-.19,0a8.21,8.21,0,0,0-1.32-3.1,2.77,2.77,0,0,0-1.6-1.12l-3.42-.46q-10.31-1.38-20.64-2.14a230.87,230.87,0,0,0-27.83-.78,3.75,3.75,0,0,1,1-7.43Z"/><path class="cls-2" d="M429.35,323.9a253.31,253.31,0,0,0,7,42.56c3.43,13.07,8.22,26.54,15.79,37.36a10.27,10.27,0,0,1-17.08,11.42,9.71,9.71,0,0,1-1-1.83,109.78,109.78,0,0,1-6.06-23c-3.19-22.19-2.06-44.49,1.24-66.48Z"/><path class="cls-2" d="M655.7,285.25c3.43,32.33,8.54,65.35,19.32,96,3.36,9,7.6,18.9,13.67,25.76a12,12,0,1,1-17.83,16.13,11.49,11.49,0,0,1-1.44-2c-6.76-11.35-9.49-23.07-11.74-35.43-5.32-33.43-4.48-67-2-100.56Z"/></g></g></g></g></g></svg>