<svg xmlns="http://www.w3.org/2000/svg" viewBox="0 0 800 800"><defs><style>.cls-1{fill:#ededed;}.cls-2{fill:#8be000;}.cls-3{fill:#fefefe;}</style></defs><g id="Camada_2" data-name="Camada 2"><g id="Layer_1" data-name="Layer 1"><path class="cls-1" d="M0,800,55.17,600C19.31,537.93,0,469,0,397.24,0,179.31,179.31,0,398.62,0S800,179.31,800,397.24,617.93,800,398.62,800c-69,0-135.17-22.07-194.48-55.17Z"/><path class="cls-2" d="M215.17,673.1l12.42,6.9c51,31.72,110.34,51,172.41,51,180.69,0,331-150.34,331-333.79S580.69,69,398.62,69,69,215.17,69,397.24c0,63.45,17.93,125.52,51,177.93l8.28,12.42L96.55,703.45Z"/><path class="cls-3" d="M292.41,212.41,266.21,211c-8.28,0-16.55,2.76-22.07,8.28-12.41,11-33.1,31.72-38.62,59.31-9.66,41.38,5.52,91,41.38,140.69S351.73,549,473.1,583.45c38.63,11,69,4.14,93.8-11A81.37,81.37,0,0,0,602.76,520l4.14-19.31c1.38-5.52-1.38-12.42-6.9-15.17l-86.9-40a13.17,13.17,0,0,0-16.55,4.13l-34.48,44.14a10.72,10.72,0,0,1-11,2.76C427.59,488.27,349,455.17,306.21,372.41c-1.38-4.13-1.38-8.27,1.38-11l33.1-37.24c2.76-4.14,4.14-9.66,2.76-13.79l-40-89.66c-1.38-4.14-5.52-8.28-11-8.28"/></g></g></svg>